<mxfile host="Electron" modified="2023-05-14T17:12:50.572Z" agent="Mozilla/5.0 (X11; Linux x86_64) AppleWebKit/537.36 (KHTML, like Gecko) draw.io/21.2.8 Chrome/112.0.5615.165 Electron/24.2.0 Safari/537.36" etag="CM41_jpIz-74SOvN1d-2" version="21.2.8" type="device">
  <diagram name="Page-1" id="XCLGE2UrVbN0CTRXwcn-">
    <mxGraphModel dx="2433" dy="2547" grid="1" gridSize="10" guides="1" tooltips="1" connect="1" arrows="1" fold="1" page="1" pageScale="1" pageWidth="1100" pageHeight="850" math="0" shadow="0">
      <root>
        <mxCell id="0" />
        <mxCell id="1" parent="0" />
        <mxCell id="p3ekqHY_MJvt6UX8bSGS-1" value="&lt;b&gt;System Boundary&lt;/b&gt;" style="ellipse;whiteSpace=wrap;html=1;rounded=0;shadow=0;dashed=0;comic=0;fontFamily=Verdana;fontSize=22;fillColor=#dae8fc;strokeColor=#6c8ebf;align=center;strokeWidth=5;" vertex="1" parent="1">
          <mxGeometry x="-662" y="-1410" width="225" height="220" as="geometry" />
        </mxCell>
        <mxCell id="p3ekqHY_MJvt6UX8bSGS-4" value="Cloud Provider" style="ellipse;whiteSpace=wrap;html=1;rounded=0;shadow=0;dashed=0;comic=0;fontFamily=Verdana;fontSize=22;fillColor=#ffe6cc;strokeColor=#d79b00;" vertex="1" parent="1">
          <mxGeometry x="-990" y="-1365" width="200" height="130" as="geometry" />
        </mxCell>
        <mxCell id="p3ekqHY_MJvt6UX8bSGS-5" style="edgeStyle=orthogonalEdgeStyle;rounded=0;orthogonalLoop=1;jettySize=auto;html=1;exitX=0.5;exitY=1;exitDx=0;exitDy=0;" edge="1" parent="1" source="p3ekqHY_MJvt6UX8bSGS-4" target="p3ekqHY_MJvt6UX8bSGS-4">
          <mxGeometry relative="1" as="geometry" />
        </mxCell>
        <mxCell id="p3ekqHY_MJvt6UX8bSGS-6" value="Sub-Project IaC" style="ellipse;whiteSpace=wrap;html=1;rounded=0;shadow=0;dashed=0;comic=0;fontFamily=Verdana;fontSize=22;fillColor=#ffe6cc;strokeColor=#d79b00;" vertex="1" parent="1">
          <mxGeometry x="-649.5" y="-1060" width="200" height="130" as="geometry" />
        </mxCell>
        <mxCell id="p3ekqHY_MJvt6UX8bSGS-7" value="Lecturer TBZ" style="ellipse;whiteSpace=wrap;html=1;rounded=0;shadow=0;dashed=0;comic=0;fontFamily=Verdana;fontSize=22;fillColor=#ffe6cc;strokeColor=#d79b00;" vertex="1" parent="1">
          <mxGeometry x="-300" y="-1365" width="200" height="130" as="geometry" />
        </mxCell>
        <mxCell id="p3ekqHY_MJvt6UX8bSGS-8" value="Software" style="ellipse;whiteSpace=wrap;html=1;rounded=0;shadow=0;dashed=0;comic=0;fontFamily=Verdana;fontSize=22;fillColor=#ffe6cc;strokeColor=#d79b00;" vertex="1" parent="1">
          <mxGeometry x="-650" y="-1670" width="200" height="130" as="geometry" />
        </mxCell>
        <mxCell id="p3ekqHY_MJvt6UX8bSGS-9" value="&lt;font style=&quot;font-size: 17px;&quot;&gt;&lt;b&gt;E1&lt;/b&gt;&lt;/font&gt;" style="html=1;shadow=0;dashed=0;align=center;verticalAlign=middle;shape=mxgraph.arrows2.arrow;dy=0.6;dx=40;notch=0;" vertex="1" parent="1">
          <mxGeometry x="-770" y="-1335" width="100" height="70" as="geometry" />
        </mxCell>
        <mxCell id="p3ekqHY_MJvt6UX8bSGS-10" value="&lt;font style=&quot;font-size: 17px;&quot;&gt;&lt;b&gt;E3&lt;/b&gt;&lt;/font&gt;" style="html=1;shadow=0;dashed=0;align=center;verticalAlign=middle;shape=mxgraph.arrows2.arrow;dy=0.6;dx=40;flipH=1;notch=0;" vertex="1" parent="1">
          <mxGeometry x="-430" y="-1335" width="100" height="70" as="geometry" />
        </mxCell>
        <mxCell id="p3ekqHY_MJvt6UX8bSGS-11" value="&lt;font style=&quot;font-size: 17px;&quot;&gt;&lt;b&gt;E2&lt;/b&gt;&lt;/font&gt;" style="html=1;shadow=0;dashed=0;align=center;verticalAlign=middle;shape=mxgraph.arrows2.arrow;dy=0.6;dx=40;direction=north;notch=0;" vertex="1" parent="1">
          <mxGeometry x="-584.5" y="-1180" width="70" height="100" as="geometry" />
        </mxCell>
        <mxCell id="p3ekqHY_MJvt6UX8bSGS-12" value="&lt;font style=&quot;font-size: 17px;&quot;&gt;&lt;b&gt;E4&lt;/b&gt;&lt;/font&gt;" style="html=1;shadow=0;dashed=0;align=center;verticalAlign=middle;shape=mxgraph.arrows2.arrow;dy=0.6;dx=40;direction=south;notch=0;" vertex="1" parent="1">
          <mxGeometry x="-585" y="-1520" width="70" height="100" as="geometry" />
        </mxCell>
      </root>
    </mxGraphModel>
  </diagram>
</mxfile>
